<?xml version="1.0" standalone="no"?>
<!DOCTYPE svg PUBLIC "-//W3C//DTD SVG 20010904//EN"
 "http://www.w3.org/TR/2001/REC-SVG-20010904/DTD/svg10.dtd">
<svg version="1.0" xmlns="http://www.w3.org/2000/svg"
 width="137.000000pt" height="138.000000pt" viewBox="0 0 137.000000 138.000000"
 preserveAspectRatio="xMidYMid meet">

<g transform="translate(0.000000,138.000000) scale(0.100000,-0.100000)"
fill="#000000" stroke="none">
<path d="M610 1001 c-82 -25 -160 -99 -191 -181 -68 -181 71 -380 266 -380 67
0 115 17 171 59 99 76 138 207 95 322 -51 134 -212 219 -341 180z m108 -183
l3 -78 74 0 75 0 0 -30 0 -30 -75 0 -75 0 0 -65 0 -65 -30 0 -30 0 0 65 0 65
-80 0 -80 0 0 30 0 30 80 0 80 0 0 81 0 80 28 -3 c27 -3 27 -4 30 -80z"/>
</g>
</svg>
