<svg xmlns="http://www.w3.org/2000/svg" width="18.004" height="17.949" viewBox="0 0 18.004 17.949">
  <path id="Path_3946" data-name="Path 3946" d="M-189.719,240.124a25.638,25.638,0,0,1,4.008.533,6.242,6.242,0,0,1,3.413,9.733,22.881,22.881,0,0,1-6.85,5.775c-.542.331-1.1.634-1.672.917-.792.394-1.062.234-1.083-.632-.019-.81-.025-1.621,0-2.43.018-.558-.169-.778-.76-.9-2.68-.553-4.682-1.938-5.4-4.745a6.46,6.46,0,0,1,6.238-8.1c.694-.01,1.389,0,2.083,0Zm-1.24,15.663a2.49,2.49,0,0,0,.528-.105,24.486,24.486,0,0,0,7.037-5.556,5.168,5.168,0,0,0-2.927-8.52,20.791,20.791,0,0,0-6.871.012,4.675,4.675,0,0,0-3.992,4.261,4.871,4.871,0,0,0,2.153,5.131,12.187,12.187,0,0,0,3.3,1.167c.559.147.79.346.774.913C-190.977,253.949-190.959,254.81-190.959,255.787Z" transform="translate(198.665 -239.706)" fill="#1f6b00" stroke="#1f6b00" stroke-width="0.75"/>
</svg>
